# Blender 5.0.1
# www.blender.org
o beak
v -0.500000 -0.281940 -0.035999 1.0000 0.3098 0.2353
v -0.500000 0.008071 -0.035999 1.0000 0.3098 0.2353
v -0.500000 -0.281940 -1.035999 1.0000 0.3098 0.2353
v -0.500000 0.008071 -1.035999 1.0000 0.3098 0.2353
v 0.500000 -0.281940 -0.035999 1.0000 0.3098 0.2353
v 0.500000 0.008071 -0.035999 1.0000 0.3098 0.2353
v 0.500000 -0.281940 -1.035999 1.0000 0.3098 0.2353
v 0.500000 0.008071 -1.035999 1.0000 0.3098 0.2353
v -0.609568 -0.313715 -0.535999 1.0000 0.3098 0.2353
v -0.609568 -0.136934 0.073569 1.0000 0.3098 0.2353
v -0.609568 0.039847 -0.535999 1.0000 0.3098 0.2353
v -0.609568 -0.136934 -1.145567 1.0000 0.3098 0.2353
v 0.000000 -0.313715 -1.145567 1.0000 0.3098 0.2353
v -0.000000 0.039847 -1.145567 1.0000 0.3098 0.2353
v 0.609568 -0.136934 -1.145567 1.0000 0.3098 0.2353
v 0.609568 -0.313715 -0.535999 1.0000 0.3098 0.2353
v 0.609568 0.039847 -0.535999 1.0000 0.3098 0.2353
v 0.609568 -0.136934 0.073569 1.0000 0.3098 0.2353
v -0.000000 -0.313715 0.073569 1.0000 0.3098 0.2353
v -0.000000 0.039847 0.073569 1.0000 0.3098 0.2353
v -0.839506 -0.136934 -0.535999 1.0000 0.3098 0.2353
v 0.000000 -0.136934 -1.375505 1.0000 0.3098 0.2353
v 0.839506 -0.136934 -0.535999 1.0000 0.3098 0.2353
v -0.000000 -0.136934 0.303507 1.0000 0.3098 0.2353
v -0.000000 -0.380400 -0.535999 1.0000 0.3098 0.2353
v -0.000000 0.106532 -0.535999 1.0000 0.3098 0.2353
v -0.500000 -0.500000 0.500000 1.0000 0.9882 0.3372
v -0.500000 0.500000 0.500000 1.0000 0.9882 0.3372
v -0.500000 -0.500000 -0.500000 1.0000 0.9882 0.3372
v -0.500000 0.500000 -0.500000 1.0000 0.9882 0.3372
v 0.500000 -0.500000 0.500000 1.0000 0.9882 0.3372
v 0.500000 0.500000 0.500000 1.0000 0.9882 0.3372
v 0.500000 -0.500000 -0.500000 1.0000 0.9882 0.3372
v 0.500000 0.500000 -0.500000 1.0000 0.9882 0.3372
v -0.609568 -0.609568 0.000000 1.0000 0.9882 0.3372
v -0.609568 0.000000 0.609568 1.0000 0.9882 0.3372
v -0.609568 0.609568 0.000000 1.0000 0.9882 0.3372
v -0.609568 0.000000 -0.609568 1.0000 0.9882 0.3372
v 0.000000 -0.609568 -0.609568 1.0000 0.9882 0.3372
v -0.000000 0.609568 -0.609568 1.0000 0.9882 0.3372
v 0.609568 0.000000 -0.609568 1.0000 0.9882 0.3372
v 0.609568 -0.609568 0.000000 1.0000 0.9882 0.3372
v 0.609568 0.609568 0.000000 1.0000 0.9882 0.3372
v 0.609568 0.000000 0.609568 1.0000 0.9882 0.3372
v -0.000000 -0.609568 0.609568 1.0000 0.9882 0.3372
v -0.000000 0.609568 0.609568 1.0000 0.9882 0.3372
v -0.839506 0.000000 0.000000 1.0000 0.9882 0.3372
v 0.000000 0.000000 -0.839506 1.0000 0.9882 0.3372
v 0.839506 0.000000 0.000000 1.0000 0.9882 0.3372
v -0.000000 0.000000 0.839506 1.0000 0.9882 0.3372
v 0.000000 -0.839506 0.000000 1.0000 0.9882 0.3372
v -0.000000 0.839506 0.000000 1.0000 0.9882 0.3372
v 0.255478 0.057386 -0.606842 1.0000 1.0000 1.0000
v 0.127846 0.531321 -0.423113 1.0000 1.0000 1.0000
v 0.397031 0.154037 -0.757821 1.0000 1.0000 1.0000
v 0.269400 0.627971 -0.574092 1.0000 1.0000 1.0000
v 0.646485 0.027888 -0.259130 1.0000 1.0000 1.0000
v 0.518853 0.501823 -0.075400 1.0000 1.0000 1.0000
v 0.788038 0.124539 -0.410109 1.0000 1.0000 1.0000
v 0.660406 0.598473 -0.226379 1.0000 1.0000 1.0000
v 0.297397 0.057015 -0.740561 1.0000 1.0000 1.0000
v 0.133311 0.286996 -0.536533 1.0000 1.0000 1.0000
v 0.141797 0.634806 -0.516570 1.0000 1.0000 1.0000
v 0.305883 0.404826 -0.720597 1.0000 1.0000 1.0000
v 0.622029 0.097949 -0.620638 1.0000 1.0000 1.0000
v 0.466428 0.675740 -0.396647 1.0000 1.0000 1.0000
v 0.782574 0.368864 -0.296688 1.0000 1.0000 1.0000
v 0.774088 0.021053 -0.316652 1.0000 1.0000 1.0000
v 0.618487 0.598844 -0.092661 1.0000 1.0000 1.0000
v 0.610001 0.251034 -0.112624 1.0000 1.0000 1.0000
v 0.449456 -0.019881 -0.436574 1.0000 1.0000 1.0000
v 0.293856 0.557910 -0.212583 1.0000 1.0000 1.0000
v 0.129690 0.352693 -0.708518 1.0000 1.0000 1.0000
v 0.576777 0.409068 -0.543359 0.0000 0.0000 0.0000
v 0.786195 0.303166 -0.124704 1.0000 1.0000 1.0000
v 0.339107 0.246791 -0.289863 1.0000 1.0000 1.0000
v 0.565090 -0.069941 -0.570853 1.0000 1.0000 1.0000
v 0.350794 0.725801 -0.262369 1.0000 1.0000 1.0000
v -0.255478 0.057386 -0.606842 1.0000 1.0000 1.0000
v -0.127846 0.531321 -0.423113 1.0000 1.0000 1.0000
v -0.397031 0.154037 -0.757821 1.0000 1.0000 1.0000
v -0.269400 0.627971 -0.574092 1.0000 1.0000 1.0000
v -0.646485 0.027888 -0.259130 1.0000 1.0000 1.0000
v -0.518853 0.501823 -0.075401 1.0000 1.0000 1.0000
v -0.788038 0.124539 -0.410109 1.0000 1.0000 1.0000
v -0.660406 0.598473 -0.226380 1.0000 1.0000 1.0000
v -0.297397 0.057015 -0.740561 1.0000 1.0000 1.0000
v -0.133311 0.286996 -0.536533 1.0000 1.0000 1.0000
v -0.141797 0.634806 -0.516570 1.0000 1.0000 1.0000
v -0.305883 0.404826 -0.720597 1.0000 1.0000 1.0000
v -0.622029 0.097949 -0.620638 1.0000 1.0000 1.0000
v -0.466428 0.675740 -0.396647 1.0000 1.0000 1.0000
v -0.782574 0.368864 -0.296688 1.0000 1.0000 1.0000
v -0.774088 0.021053 -0.316652 1.0000 1.0000 1.0000
v -0.618487 0.598844 -0.092661 1.0000 1.0000 1.0000
v -0.610001 0.251034 -0.112625 1.0000 1.0000 1.0000
v -0.449456 -0.019881 -0.436574 1.0000 1.0000 1.0000
v -0.293856 0.557910 -0.212583 1.0000 1.0000 1.0000
v -0.129690 0.352693 -0.708518 1.0000 1.0000 1.0000
v -0.576777 0.409068 -0.543359 0.0000 0.0000 0.0000
v -0.786195 0.303166 -0.124704 1.0000 1.0000 1.0000
v -0.339107 0.246791 -0.289863 1.0000 1.0000 1.0000
v -0.565090 -0.069941 -0.570853 1.0000 1.0000 1.0000
v -0.350794 0.725801 -0.262369 1.0000 1.0000 1.0000
v 0.400950 -0.107042 0.738247 1.0000 0.8235 0.3294
v 0.552983 0.155917 0.738247 1.0000 0.8235 0.3294
v 0.400950 -0.107042 0.115327 1.0000 0.8235 0.3294
v 0.552983 0.155917 0.115327 1.0000 0.8235 0.3294
v 0.940225 -0.418830 0.738247 1.0000 0.8235 0.3294
v 1.092257 -0.155872 0.738247 1.0000 0.8235 0.3294
v 0.940225 -0.418830 0.115327 1.0000 0.8235 0.3294
v 1.092257 -0.155872 0.115327 1.0000 0.8235 0.3294
v 0.325205 -0.101691 0.426787 1.0000 0.8235 0.3294
v 0.417879 0.058600 0.806499 1.0000 0.8235 0.3294
v 0.510553 0.218891 0.426787 1.0000 0.8235 0.3294
v 0.417879 0.058600 0.047075 1.0000 0.8235 0.3294
v 0.653929 -0.291748 0.047075 1.0000 0.8235 0.3294
v 0.839278 0.028834 0.047075 1.0000 0.8235 0.3294
v 1.075328 -0.321513 0.047075 1.0000 0.8235 0.3294
v 0.982654 -0.481804 0.426787 1.0000 0.8235 0.3294
v 1.168003 -0.161222 0.426787 1.0000 0.8235 0.3294
v 1.075328 -0.321513 0.806499 1.0000 0.8235 0.3294
v 0.653929 -0.291748 0.806499 1.0000 0.8235 0.3294
v 0.839278 0.028834 0.806499 1.0000 0.8235 0.3294
v 0.293879 0.130292 0.426787 1.0000 0.8235 0.3294
v 0.746604 -0.131457 -0.096158 1.0000 0.8235 0.3294
v 1.199328 -0.393205 0.426787 1.0000 0.8235 0.3294
v 0.746604 -0.131457 0.949733 1.0000 0.8235 0.3294
v 0.618971 -0.352212 0.426787 1.0000 0.8235 0.3294
v 0.874236 0.089298 0.426787 1.0000 0.8235 0.3294
v -0.400950 -0.107041 0.738247 1.0000 0.8235 0.3294
v -0.552983 0.155917 0.738247 1.0000 0.8235 0.3294
v -0.400950 -0.107041 0.115327 1.0000 0.8235 0.3294
v -0.552983 0.155917 0.115327 1.0000 0.8235 0.3294
v -0.940225 -0.418830 0.738247 1.0000 0.8235 0.3294
v -1.092257 -0.155872 0.738247 1.0000 0.8235 0.3294
v -0.940225 -0.418830 0.115327 1.0000 0.8235 0.3294
v -1.092257 -0.155872 0.115327 1.0000 0.8235 0.3294
v -0.325205 -0.101691 0.426787 1.0000 0.8235 0.3294
v -0.417879 0.058600 0.806499 1.0000 0.8235 0.3294
v -0.510553 0.218891 0.426787 1.0000 0.8235 0.3294
v -0.417879 0.058600 0.047075 1.0000 0.8235 0.3294
v -0.653930 -0.291748 0.047075 1.0000 0.8235 0.3294
v -0.839278 0.028834 0.047075 1.0000 0.8235 0.3294
v -1.075328 -0.321513 0.047075 1.0000 0.8235 0.3294
v -0.982654 -0.481804 0.426787 1.0000 0.8235 0.3294
v -1.168003 -0.161222 0.426787 1.0000 0.8235 0.3294
v -1.075328 -0.321513 0.806499 1.0000 0.8235 0.3294
v -0.653930 -0.291748 0.806499 1.0000 0.8235 0.3294
v -0.839278 0.028834 0.806499 1.0000 0.8235 0.3294
v -0.293879 0.130292 0.426787 1.0000 0.8235 0.3294
v -0.746604 -0.131457 -0.096158 1.0000 0.8235 0.3294
v -1.199328 -0.393205 0.426787 1.0000 0.8235 0.3294
v -0.746604 -0.131457 0.949733 1.0000 0.8235 0.3294
v -0.618971 -0.352212 0.426787 1.0000 0.8235 0.3294
v -0.874236 0.089298 0.426787 1.0000 0.8235 0.3294
vn -0.6343 -0.7425 0.2153
vn -0.6343 0.7425 0.2153
vn -0.6343 0.7425 -0.2153
vn -0.6343 -0.7425 -0.2153
vn -0.2153 -0.7425 -0.6343
vn -0.2153 0.7425 -0.6343
vn 0.2153 0.7425 -0.6343
vn 0.2153 -0.7425 -0.6343
vn 0.6343 -0.7425 -0.2153
vn 0.6343 0.7425 -0.2153
vn 0.6343 0.7425 0.2153
vn 0.6343 -0.7425 0.2153
vn 0.2153 -0.7425 0.6343
vn 0.2153 0.7425 0.6343
vn -0.2153 0.7425 0.6343
vn -0.2153 -0.7425 0.6343
vn -0.0975 -0.9904 -0.0975
vn 0.0975 -0.9904 -0.0975
vn 0.0975 -0.9904 0.0975
vn -0.0975 -0.9904 0.0975
vn 0.0975 0.9904 -0.0975
vn -0.0975 0.9904 -0.0975
vn -0.0975 0.9904 0.0975
vn 0.0975 0.9904 0.0975
vn -0.9015 -0.3061 0.3061
vn -0.9015 0.3061 0.3061
vn -0.9015 0.3061 -0.3061
vn -0.9015 -0.3061 -0.3061
vn -0.3061 -0.3061 -0.9015
vn -0.3061 0.3061 -0.9015
vn 0.3061 0.3061 -0.9015
vn 0.3061 -0.3061 -0.9015
vn 0.9015 -0.3061 -0.3061
vn 0.9015 0.3061 -0.3061
vn 0.9015 0.3061 0.3061
vn 0.9015 -0.3061 0.3061
vn 0.3061 -0.3061 0.9015
vn 0.3061 0.3061 0.9015
vn -0.3061 0.3061 0.9015
vn -0.3061 -0.3061 0.9015
vn -0.3061 -0.9015 -0.3061
vn 0.3061 -0.9015 -0.3061
vn 0.3061 -0.9015 0.3061
vn -0.3061 -0.9015 0.3061
vn 0.3061 0.9015 -0.3061
vn -0.3061 0.9015 -0.3061
vn -0.3061 0.9015 0.3061
vn 0.3061 0.9015 0.3061
vn -0.8734 -0.4422 -0.2039
vn -0.9994 0.0257 -0.0225
vn -0.2637 0.5280 -0.8073
vn -0.1377 0.0601 -0.9887
vn 0.5338 0.2913 -0.7938
vn 0.4633 0.5533 -0.6923
vn 0.6794 0.5370 -0.5001
vn 0.7499 0.2750 -0.6017
vn 0.9994 -0.0257 0.0225
vn 0.8734 0.4422 0.2039
vn 0.1377 -0.0601 0.9887
vn 0.2637 -0.5280 0.8073
vn -0.4633 -0.5533 0.6923
vn -0.5338 -0.2913 0.7938
vn -0.7499 -0.2750 0.6017
vn -0.6794 -0.5370 0.5001
vn 0.3604 -0.4234 -0.8312
vn 0.7465 -0.4525 -0.4879
vn 0.0107 -0.9549 0.2969
vn -0.3753 -0.9257 -0.0464
vn 0.3753 0.9257 0.0464
vn -0.0107 0.9549 -0.2969
vn -0.7465 0.4525 0.4879
vn -0.3604 0.4234 0.8312
vn 0.8734 -0.4422 -0.2039
vn 0.9994 0.0257 -0.0225
vn 0.2637 0.5280 -0.8073
vn 0.1377 0.0601 -0.9887
vn -0.5338 0.2913 -0.7938
vn -0.4633 0.5533 -0.6923
vn -0.6794 0.5370 -0.5001
vn -0.7499 0.2750 -0.6017
vn -0.9994 -0.0257 0.0225
vn -0.8734 0.4422 0.2039
vn -0.1377 -0.0601 0.9887
vn -0.2637 -0.5280 0.8073
vn 0.4633 -0.5533 0.6923
vn 0.5338 -0.2913 0.7938
vn 0.7499 -0.2750 0.6017
vn 0.6794 -0.5370 0.5001
vn -0.3604 -0.4234 -0.8312
vn -0.7465 -0.4525 -0.4879
vn -0.0107 -0.9549 0.2969
vn 0.3753 -0.9257 -0.0464
vn -0.3753 0.9257 0.0464
vn 0.0107 0.9549 -0.2969
vn 0.7465 0.4525 0.4879
vn 0.3604 0.4234 0.8312
vn -0.9599 -0.0808 0.2684
vn -0.4089 0.8722 0.2684
vn -0.4089 0.8722 -0.2684
vn -0.9599 -0.0808 -0.2684
vn -0.5079 -0.3422 -0.7906
vn 0.0431 0.6109 -0.7906
vn 0.5079 0.3422 -0.7906
vn -0.0431 -0.6109 -0.7906
vn 0.4089 -0.8722 -0.2684
vn 0.9599 0.0808 -0.2684
vn 0.9599 0.0808 0.2684
vn 0.4089 -0.8722 0.2684
vn -0.0431 -0.6109 0.7906
vn 0.5079 0.3422 0.7906
vn 0.0431 0.6109 0.7906
vn -0.5079 -0.3422 0.7906
vn -0.6269 -0.7622 -0.1612
vn -0.3478 -0.9236 -0.1612
vn -0.3478 -0.9236 0.1612
vn -0.6269 -0.7622 0.1612
vn 0.6269 0.7622 -0.1612
vn 0.3478 0.9236 -0.1612
vn 0.3478 0.9236 0.1612
vn 0.6269 0.7622 0.1612
vn 0.9599 -0.0808 0.2684
vn 0.4089 0.8722 0.2684
vn 0.4089 0.8722 -0.2684
vn 0.9599 -0.0808 -0.2684
vn 0.5079 -0.3422 -0.7906
vn -0.0431 0.6109 -0.7906
vn -0.5079 0.3422 -0.7906
vn 0.0431 -0.6109 -0.7906
vn -0.4089 -0.8722 -0.2684
vn -0.9599 0.0808 -0.2684
vn -0.9599 0.0808 0.2684
vn -0.4089 -0.8722 0.2684
vn 0.0431 -0.6109 0.7906
vn -0.5079 0.3422 0.7906
vn -0.0431 0.6109 0.7906
vn 0.5079 -0.3422 0.7906
vn 0.6269 -0.7622 -0.1612
vn 0.3478 -0.9236 -0.1612
vn 0.3478 -0.9236 0.1612
vn 0.6269 -0.7622 0.1612
vn -0.6269 0.7622 -0.1612
vn -0.3478 0.9236 -0.1612
vn -0.3478 0.9236 0.1612
vn -0.6269 0.7622 0.1612
vt 0.375000 0.000000
vt 0.500000 0.000000
vt 0.500000 0.125000
vt 0.375000 0.125000
vt 0.625000 0.000000
vt 0.625000 0.125000
vt 0.625000 0.250000
vt 0.500000 0.250000
vt 0.375000 0.250000
vt 0.500000 0.375000
vt 0.375000 0.375000
vt 0.625000 0.375000
vt 0.625000 0.500000
vt 0.500000 0.500000
vt 0.375000 0.500000
vt 0.500000 0.625000
vt 0.375000 0.625000
vt 0.625000 0.625000
vt 0.625000 0.750000
vt 0.500000 0.750000
vt 0.375000 0.750000
vt 0.500000 0.875000
vt 0.375000 0.875000
vt 0.625000 0.875000
vt 0.625000 1.000000
vt 0.500000 1.000000
vt 0.375000 1.000000
vt 0.125000 0.500000
vt 0.250000 0.500000
vt 0.250000 0.625000
vt 0.125000 0.625000
vt 0.250000 0.750000
vt 0.125000 0.750000
vt 0.750000 0.500000
vt 0.750000 0.625000
vt 0.875000 0.500000
vt 0.875000 0.625000
vt 0.875000 0.750000
vt 0.750000 0.750000
s 0
f 1/1/1 10/2/1 21/3/1 9/4/1
f 10/2/2 2/5/2 11/6/2 21/3/2
f 21/3/3 11/6/3 4/7/3 12/8/3
f 9/4/4 21/3/4 12/8/4 3/9/4
f 3/9/5 12/8/5 22/10/5 13/11/5
f 12/8/6 4/7/6 14/12/6 22/10/6
f 22/10/7 14/12/7 8/13/7 15/14/7
f 13/11/8 22/10/8 15/14/8 7/15/8
f 7/15/9 15/14/9 23/16/9 16/17/9
f 15/14/10 8/13/10 17/18/10 23/16/10
f 23/16/11 17/18/11 6/19/11 18/20/11
f 16/17/12 23/16/12 18/20/12 5/21/12
f 5/21/13 18/20/13 24/22/13 19/23/13
f 18/20/14 6/19/14 20/24/14 24/22/14
f 24/22/15 20/24/15 2/25/15 10/26/15
f 19/23/16 24/22/16 10/26/16 1/27/16
f 3/28/17 13/29/17 25/30/17 9/31/17
f 13/29/18 7/15/18 16/17/18 25/30/18
f 25/30/19 16/17/19 5/21/19 19/32/19
f 9/31/20 25/30/20 19/32/20 1/33/20
f 8/13/21 14/34/21 26/35/21 17/18/21
f 14/34/22 4/36/22 11/37/22 26/35/22
f 26/35/23 11/37/23 2/38/23 20/39/23
f 17/18/24 26/35/24 20/39/24 6/19/24
f 27/1/25 36/2/25 47/3/25 35/4/25
f 36/2/26 28/5/26 37/6/26 47/3/26
f 47/3/27 37/6/27 30/7/27 38/8/27
f 35/4/28 47/3/28 38/8/28 29/9/28
f 29/9/29 38/8/29 48/10/29 39/11/29
f 38/8/30 30/7/30 40/12/30 48/10/30
f 48/10/31 40/12/31 34/13/31 41/14/31
f 39/11/32 48/10/32 41/14/32 33/15/32
f 33/15/33 41/14/33 49/16/33 42/17/33
f 41/14/34 34/13/34 43/18/34 49/16/34
f 49/16/35 43/18/35 32/19/35 44/20/35
f 42/17/36 49/16/36 44/20/36 31/21/36
f 31/21/37 44/20/37 50/22/37 45/23/37
f 44/20/38 32/19/38 46/24/38 50/22/38
f 50/22/39 46/24/39 28/25/39 36/26/39
f 45/23/40 50/22/40 36/26/40 27/27/40
f 29/28/41 39/29/41 51/30/41 35/31/41
f 39/29/42 33/15/42 42/17/42 51/30/42
f 51/30/43 42/17/43 31/21/43 45/32/43
f 35/31/44 51/30/44 45/32/44 27/33/44
f 34/13/45 40/34/45 52/35/45 43/18/45
f 40/34/46 30/36/46 37/37/46 52/35/46
f 52/35/47 37/37/47 28/38/47 46/39/47
f 43/18/48 52/35/48 46/39/48 32/19/48
f 53/1/49 62/2/49 73/3/49 61/4/49
f 62/2/50 54/5/50 63/6/50 73/3/50
f 73/3/51 63/6/51 56/7/51 64/8/51
f 61/4/52 73/3/52 64/8/52 55/9/52
f 55/9/53 64/8/53 74/10/53 65/11/53
f 64/8/54 56/7/54 66/12/54 74/10/54
f 74/10/55 66/12/55 60/13/55 67/14/55
f 65/11/56 74/10/56 67/14/56 59/15/56
f 59/15/57 67/14/57 75/16/57 68/17/57
f 67/14/58 60/13/58 69/18/58 75/16/58
f 75/16/59 69/18/59 58/19/59 70/20/59
f 68/17/60 75/16/60 70/20/60 57/21/60
f 57/21/61 70/20/61 76/22/61 71/23/61
f 70/20/62 58/19/62 72/24/62 76/22/62
f 76/22/63 72/24/63 54/25/63 62/26/63
f 71/23/64 76/22/64 62/26/64 53/27/64
f 55/28/65 65/29/65 77/30/65 61/31/65
f 65/29/66 59/15/66 68/17/66 77/30/66
f 77/30/67 68/17/67 57/21/67 71/32/67
f 61/31/68 77/30/68 71/32/68 53/33/68
f 60/13/69 66/34/69 78/35/69 69/18/69
f 66/34/70 56/36/70 63/37/70 78/35/70
f 78/35/71 63/37/71 54/38/71 72/39/71
f 69/18/72 78/35/72 72/39/72 58/19/72
f 79/1/73 87/4/73 99/3/73 88/2/73
f 88/2/74 99/3/74 89/6/74 80/5/74
f 99/3/75 90/8/75 82/7/75 89/6/75
f 87/4/76 81/9/76 90/8/76 99/3/76
f 81/9/77 91/11/77 100/10/77 90/8/77
f 90/8/78 100/10/78 92/12/78 82/7/78
f 100/10/79 93/14/79 86/13/79 92/12/79
f 91/11/80 85/15/80 93/14/80 100/10/80
f 85/15/81 94/17/81 101/16/81 93/14/81
f 93/14/82 101/16/82 95/18/82 86/13/82
f 101/16/83 96/20/83 84/19/83 95/18/83
f 94/17/84 83/21/84 96/20/84 101/16/84
f 83/21/85 97/23/85 102/22/85 96/20/85
f 96/20/86 102/22/86 98/24/86 84/19/86
f 102/22/87 88/26/87 80/25/87 98/24/87
f 97/23/88 79/27/88 88/26/88 102/22/88
f 81/28/89 87/31/89 103/30/89 91/29/89
f 91/29/90 103/30/90 94/17/90 85/15/90
f 103/30/91 97/32/91 83/21/91 94/17/91
f 87/31/92 79/33/92 97/32/92 103/30/92
f 86/13/93 95/18/93 104/35/93 92/34/93
f 92/34/94 104/35/94 89/37/94 82/36/94
f 104/35/95 98/39/95 80/38/95 89/37/95
f 95/18/96 84/19/96 98/39/96 104/35/96
f 105/1/97 114/2/97 125/3/97 113/4/97
f 114/2/98 106/5/98 115/6/98 125/3/98
f 125/3/99 115/6/99 108/7/99 116/8/99
f 113/4/100 125/3/100 116/8/100 107/9/100
f 107/9/101 116/8/101 126/10/101 117/11/101
f 116/8/102 108/7/102 118/12/102 126/10/102
f 126/10/103 118/12/103 112/13/103 119/14/103
f 117/11/104 126/10/104 119/14/104 111/15/104
f 111/15/105 119/14/105 127/16/105 120/17/105
f 119/14/106 112/13/106 121/18/106 127/16/106
f 127/16/107 121/18/107 110/19/107 122/20/107
f 120/17/108 127/16/108 122/20/108 109/21/108
f 109/21/109 122/20/109 128/22/109 123/23/109
f 122/20/110 110/19/110 124/24/110 128/22/110
f 128/22/111 124/24/111 106/25/111 114/26/111
f 123/23/112 128/22/112 114/26/112 105/27/112
f 107/28/113 117/29/113 129/30/113 113/31/113
f 117/29/114 111/15/114 120/17/114 129/30/114
f 129/30/115 120/17/115 109/21/115 123/32/115
f 113/31/116 129/30/116 123/32/116 105/33/116
f 112/13/117 118/34/117 130/35/117 121/18/117
f 118/34/118 108/36/118 115/37/118 130/35/118
f 130/35/119 115/37/119 106/38/119 124/39/119
f 121/18/120 130/35/120 124/39/120 110/19/120
f 131/1/121 139/4/121 151/3/121 140/2/121
f 140/2/122 151/3/122 141/6/122 132/5/122
f 151/3/123 142/8/123 134/7/123 141/6/123
f 139/4/124 133/9/124 142/8/124 151/3/124
f 133/9/125 143/11/125 152/10/125 142/8/125
f 142/8/126 152/10/126 144/12/126 134/7/126
f 152/10/127 145/14/127 138/13/127 144/12/127
f 143/11/128 137/15/128 145/14/128 152/10/128
f 137/15/129 146/17/129 153/16/129 145/14/129
f 145/14/130 153/16/130 147/18/130 138/13/130
f 153/16/131 148/20/131 136/19/131 147/18/131
f 146/17/132 135/21/132 148/20/132 153/16/132
f 135/21/133 149/23/133 154/22/133 148/20/133
f 148/20/134 154/22/134 150/24/134 136/19/134
f 154/22/135 140/26/135 132/25/135 150/24/135
f 149/23/136 131/27/136 140/26/136 154/22/136
f 133/28/137 139/31/137 155/30/137 143/29/137
f 143/29/138 155/30/138 146/17/138 137/15/138
f 155/30/139 149/32/139 135/21/139 146/17/139
f 139/31/140 131/33/140 149/32/140 155/30/140
f 138/13/141 147/18/141 156/35/141 144/34/141
f 144/34/142 156/35/142 141/37/142 134/36/142
f 156/35/143 150/39/143 132/38/143 141/37/143
f 147/18/144 136/19/144 150/39/144 156/35/144
